{
  "asset": {
    "version": "2.0",
    "generator": "rime skinned fixture generator (hand-authored, CC0)"
  },
  "scene": 0,
  "scenes": [
    {
      "nodes": [
        0,
        1
      ]
    }
  ],
  "nodes": [
    {
      "name": "A",
      "translation": [
        0.0,
        0.0,
        0.0
      ],
      "children": [
        1
      ],
      "mesh": 0,
      "skin": 0
    },
    {
      "name": "B",
      "translation": [
        2.0,
        0.0,
        0.0
      ]
    }
  ],
  "meshes": [
    {
      "primitives": [
        {
          "attributes": {
            "POSITION": 0,
            "NORMAL": 1,
            "JOINTS_0": 2,
            "WEIGHTS_0": 3
          },
          "indices": 4,
          "mode": 4
        }
      ]
    }
  ],
  "skins": [
    {
      "joints": [
        1,
        0
      ],
      "inverseBindMatrices": 5,
      "skeleton": 0
    }
  ],
  "animations": [
    {
      "name": "Spin",
      "samplers": [
        {
          "input": 6,
          "output": 7,
          "interpolation": "LINEAR"
        },
        {
          "input": 6,
          "output": 8,
          "interpolation": "LINEAR"
        }
      ],
      "channels": [
        {
          "sampler": 0,
          "target": {
            "node": 0,
            "path": "translation"
          }
        },
        {
          "sampler": 1,
          "target": {
            "node": 1,
            "path": "rotation"
          }
        }
      ]
    }
  ],
  "accessors": [
    {
      "bufferView": 0,
      "componentType": 5126,
      "count": 4,
      "type": "VEC3",
      "min": [
        0.0,
        -0.5,
        0.0
      ],
      "max": [
        2.0,
        0.5,
        0.0
      ]
    },
    {
      "bufferView": 1,
      "componentType": 5126,
      "count": 4,
      "type": "VEC3"
    },
    {
      "bufferView": 2,
      "componentType": 5123,
      "count": 4,
      "type": "VEC4"
    },
    {
      "bufferView": 3,
      "componentType": 5126,
      "count": 4,
      "type": "VEC4"
    },
    {
      "bufferView": 4,
      "componentType": 5123,
      "count": 6,
      "type": "SCALAR"
    },
    {
      "bufferView": 5,
      "componentType": 5126,
      "count": 2,
      "type": "MAT4"
    },
    {
      "bufferView": 6,
      "componentType": 5126,
      "count": 2,
      "type": "SCALAR",
      "min": [
        0.0
      ],
      "max": [
        1.0
      ]
    },
    {
      "bufferView": 7,
      "componentType": 5126,
      "count": 2,
      "type": "VEC3"
    },
    {
      "bufferView": 8,
      "componentType": 5126,
      "count": 2,
      "type": "VEC4"
    }
  ],
  "bufferViews": [
    {
      "buffer": 0,
      "byteOffset": 0,
      "byteLength": 48,
      "target": 34962
    },
    {
      "buffer": 0,
      "byteOffset": 48,
      "byteLength": 48,
      "target": 34962
    },
    {
      "buffer": 0,
      "byteOffset": 96,
      "byteLength": 32,
      "target": 34962
    },
    {
      "buffer": 0,
      "byteOffset": 128,
      "byteLength": 64,
      "target": 34962
    },
    {
      "buffer": 0,
      "byteOffset": 192,
      "byteLength": 12,
      "target": 34963
    },
    {
      "buffer": 0,
      "byteOffset": 204,
      "byteLength": 128
    },
    {
      "buffer": 0,
      "byteOffset": 332,
      "byteLength": 8
    },
    {
      "buffer": 0,
      "byteOffset": 340,
      "byteLength": 24
    },
    {
      "buffer": 0,
      "byteOffset": 364,
      "byteLength": 32
    }
  ],
  "buffers": [
    {
      "byteLength": 396,
      "uri": "data:application/octet-stream;base64,"
    }
  ]
}