{
  "asset": {
    "version": "2.0",
    "generator": "rime zoo generator (hand-authored for Rime, stdlib Python, Apache-2.0)"
  },
  "scene": 0,
  "scenes": [
    {
      "nodes": [
        0,
        1
      ]
    }
  ],
  "nodes": [
    {
      "name": "rig",
      "mesh": 0,
      "skin": 0
    },
    {
      "name": "root",
      "translation": [
        0.0,
        -0.5,
        0.0
      ],
      "children": [
        2
      ]
    },
    {
      "name": "mid",
      "translation": [
        0.0,
        0.5,
        0.0
      ],
      "children": [
        3
      ]
    },
    {
      "name": "tip",
      "translation": [
        0.0,
        0.5,
        0.0
      ]
    }
  ],
  "meshes": [
    {
      "name": "rig",
      "primitives": [
        {
          "attributes": {
            "POSITION": 0,
            "NORMAL": 1,
            "TEXCOORD_0": 2,
            "JOINTS_0": 3,
            "WEIGHTS_0": 4
          },
          "indices": 5,
          "material": 0,
          "mode": 4
        }
      ]
    }
  ],
  "materials": [
    {
      "name": "rig-clay",
      "pbrMetallicRoughness": {
        "baseColorFactor": [
          0.78,
          0.4,
          0.14,
          1.0
        ],
        "metallicFactor": 0.0,
        "roughnessFactor": 0.65
      }
    }
  ],
  "skins": [
    {
      "joints": [
        1,
        2,
        3
      ],
      "inverseBindMatrices": 6,
      "skeleton": 1
    }
  ],
  "animations": [
    {
      "name": "Bend",
      "samplers": [
        {
          "input": 7,
          "output": 8,
          "interpolation": "LINEAR"
        },
        {
          "input": 7,
          "output": 9,
          "interpolation": "LINEAR"
        }
      ],
      "channels": [
        {
          "sampler": 0,
          "target": {
            "node": 2,
            "path": "rotation"
          }
        },
        {
          "sampler": 1,
          "target": {
            "node": 3,
            "path": "rotation"
          }
        }
      ]
    }
  ],
  "bufferViews": [
    {
      "buffer": 0,
      "byteOffset": 0,
      "byteLength": 960,
      "target": 34962
    },
    {
      "buffer": 0,
      "byteOffset": 960,
      "byteLength": 960,
      "target": 34962
    },
    {
      "buffer": 0,
      "byteOffset": 1920,
      "byteLength": 640,
      "target": 34962
    },
    {
      "buffer": 0,
      "byteOffset": 2560,
      "byteLength": 640,
      "target": 34962
    },
    {
      "buffer": 0,
      "byteOffset": 3200,
      "byteLength": 1280,
      "target": 34962
    },
    {
      "buffer": 0,
      "byteOffset": 4480,
      "byteLength": 408,
      "target": 34963
    },
    {
      "buffer": 0,
      "byteOffset": 4888,
      "byteLength": 192
    },
    {
      "buffer": 0,
      "byteOffset": 5080,
      "byteLength": 12
    },
    {
      "buffer": 0,
      "byteOffset": 5092,
      "byteLength": 48
    },
    {
      "buffer": 0,
      "byteOffset": 5140,
      "byteLength": 48
    }
  ],
  "accessors": [
    {
      "bufferView": 0,
      "componentType": 5126,
      "count": 80,
      "type": "VEC3",
      "min": [
        -0.11999999731779099,
        -0.5,
        -0.11999999731779099
      ],
      "max": [
        0.11999999731779099,
        0.5,
        0.11999999731779099
      ]
    },
    {
      "bufferView": 1,
      "componentType": 5126,
      "count": 80,
      "type": "VEC3"
    },
    {
      "bufferView": 2,
      "componentType": 5126,
      "count": 80,
      "type": "VEC2"
    },
    {
      "bufferView": 3,
      "componentType": 5123,
      "count": 80,
      "type": "VEC4"
    },
    {
      "bufferView": 4,
      "componentType": 5126,
      "count": 80,
      "type": "VEC4"
    },
    {
      "bufferView": 5,
      "componentType": 5123,
      "count": 204,
      "type": "SCALAR"
    },
    {
      "bufferView": 6,
      "componentType": 5126,
      "count": 3,
      "type": "MAT4"
    },
    {
      "bufferView": 7,
      "componentType": 5126,
      "count": 3,
      "type": "SCALAR",
      "min": [
        0.0
      ],
      "max": [
        1.0
      ]
    },
    {
      "bufferView": 8,
      "componentType": 5126,
      "count": 3,
      "type": "VEC4"
    },
    {
      "bufferView": 9,
      "componentType": 5126,
      "count": 3,
      "type": "VEC4"
    }
  ],
  "buffers": [
    {
      "byteLength": 5188,
      "uri": "data:application/octet-stream;base64,"
    }
  ]
}
