{
  "asset": {
    "version": "2.0",
    "generator": "rime zoo generator (hand-authored for Rime, stdlib Python, Apache-2.0)"
  },
  "scene": 0,
  "scenes": [
    {
      "nodes": [
        0
      ]
    }
  ],
  "nodes": [
    {
      "name": "sphere",
      "mesh": 0
    }
  ],
  "meshes": [
    {
      "name": "sphere",
      "primitives": [
        {
          "attributes": {
            "POSITION": 0,
            "NORMAL": 1,
            "TEXCOORD_0": 2
          },
          "indices": 3,
          "material": 0,
          "mode": 4
        }
      ]
    }
  ],
  "materials": [
    {
      "name": "sphere-hero",
      "pbrMetallicRoughness": {
        "baseColorTexture": {
          "index": 0
        },
        "metallicRoughnessTexture": {
          "index": 1
        },
        "metallicFactor": 1.0,
        "roughnessFactor": 1.0
      },
      "normalTexture": {
        "index": 2
      }
    }
  ],
  "textures": [
    {
      "source": 0
    },
    {
      "source": 1
    },
    {
      "source": 2
    }
  ],
  "images": [
    {
      "uri": "textures/sphere_albedo.png"
    },
    {
      "uri": "textures/sphere_mr.png"
    },
    {
      "uri": "textures/sphere_normal.png"
    }
  ],
  "bufferViews": [
    {
      "buffer": 0,
      "byteOffset": 0,
      "byteLength": 14700,
      "target": 34962
    },
    {
      "buffer": 0,
      "byteOffset": 14700,
      "byteLength": 14700,
      "target": 34962
    },
    {
      "buffer": 0,
      "byteOffset": 29400,
      "byteLength": 9800,
      "target": 34962
    },
    {
      "buffer": 0,
      "byteOffset": 39200,
      "byteLength": 13248,
      "target": 34963
    }
  ],
  "accessors": [
    {
      "bufferView": 0,
      "componentType": 5126,
      "count": 1225,
      "type": "VEC3",
      "min": [
        -0.5,
        -0.5,
        -0.5
      ],
      "max": [
        0.5,
        0.5,
        0.5
      ]
    },
    {
      "bufferView": 1,
      "componentType": 5126,
      "count": 1225,
      "type": "VEC3"
    },
    {
      "bufferView": 2,
      "componentType": 5126,
      "count": 1225,
      "type": "VEC2"
    },
    {
      "bufferView": 3,
      "componentType": 5123,
      "count": 6624,
      "type": "SCALAR"
    }
  ],
  "buffers": [
    {
      "byteLength": 52448,
      "uri": "data:application/octet-stream;base64,"
    }
  ]
}
